<?xml version="1.0" encoding="utf-8"?>
<!-- Generator: Adobe Illustrator 18.0.0, SVG Export Plug-In . SVG Version: 6.00 Build 0)  -->
<!DOCTYPE svg PUBLIC "-//W3C//DTD SVG 1.1//EN" "http://www.w3.org/Graphics/SVG/1.1/DTD/svg11.dtd">
<svg version="1.1" id="Layer_1" xmlns="http://www.w3.org/2000/svg" xmlns:xlink="http://www.w3.org/1999/xlink" x="0px" y="0px"
	 viewBox="0 0 150 150" enable-background="new 0 0 150 150" xml:space="preserve">
<g id="XMLID_826_">
	<path id="XMLID_827_" fill="#FFFFFF" d="M146.1,40.4c-2.3,1-4.7,1.9-7.2,2.6c2.9-3.3,5.1-7.2,6.5-11.4c0.3-1,0-2-0.8-2.6
		c-0.8-0.6-1.9-0.7-2.7-0.2c-5.2,3.1-10.9,5.3-16.8,6.6c-6-5.8-14-9.1-22.4-9.1c-17.6,0-32,14.3-32,32c0,1.4,0.1,2.8,0.3,4.1
		c-21.9-1.9-42.2-12.7-56.2-29.8c-0.5-0.6-1.3-0.9-2.1-0.9c-0.8,0.1-1.5,0.5-1.9,1.2C8,37.8,6.5,43.4,6.5,49c0,7.7,2.8,15,7.6,20.7
		c-1.5-0.5-2.9-1.2-4.3-1.9c-0.7-0.4-1.6-0.4-2.4,0c-0.7,0.4-1.2,1.2-1.2,2c0,0.1,0,0.3,0,0.4c0,11.5,6.2,21.9,15.7,27.5
		c-0.8-0.1-1.6-0.2-2.4-0.4c-0.8-0.2-1.7,0.1-2.2,0.8c-0.6,0.6-0.7,1.5-0.5,2.3c3.5,10.9,12.5,19,23.4,21.4
		c-9,5.7-19.4,8.6-30.2,8.6c-2.3,0-4.5-0.1-6.8-0.4c-1.1-0.1-2.2,0.5-2.5,1.6c-0.4,1.1,0,2.2,1,2.8c13.9,8.9,30.1,13.7,46.6,13.7
		c32.6,0,52.9-15.4,64.3-28.2c14.2-16.1,22.3-37.3,22.3-58.3c0-0.9,0-1.8,0-2.6c5.6-4.2,10.4-9.3,14.3-15.2c0.6-0.9,0.5-2.1-0.2-2.9
		C148.2,40.3,147.1,40,146.1,40.4z"/>
</g>
</svg>
